<svg viewBox="0 0 500 500" xmlns="http://www.w3.org/2000/svg">
  <ellipse style="stroke: rgb(0, 0, 0); fill: rgb(255, 255, 255); stroke-width: 2px;" cx="250" cy="250" rx="248" ry="248" transform="matrix(1, 0, 0, 1, 0, 7.105427357601002e-15)"/>
  <path d="M 176.272 455.557 C 176.272 457.405 176.272 458.329 176.272 458.329 C 174.793 458.329 173.684 457.405 172.946 455.557 C 167.772 442.253 165.555 428.024 166.293 412.872 C 167.032 397.719 169.62 382.198 174.054 366.307 C 178.489 350.415 184.494 334.432 192.071 318.356 C 199.647 302.28 207.87 286.665 216.739 271.514 C 206.761 264.861 198.538 256.453 192.071 246.291 C 185.603 236.127 179.968 225.317 175.163 213.861 C 169.25 200.187 164.26 186.328 160.196 172.285 C 156.131 158.241 152.25 144.568 148.554 131.264 C 144.858 117.959 140.978 105.301 136.913 93.291 C 132.848 81.28 128.043 70.47 122.5 60.861 C 122.5 59.383 122.684 58.828 123.054 59.198 C 134.511 67.328 143.472 77.306 149.94 89.133 C 156.408 100.959 161.766 113.709 166.016 127.383 C 170.267 141.056 174.239 155.192 177.935 169.791 C 181.631 184.388 186.434 198.34 192.348 211.644 C 196.413 220.882 200.94 229.475 205.929 237.421 C 210.918 245.366 217.109 252.85 224.5 259.872 L 231.707 248.231 C 229.119 244.905 227.179 241.856 225.886 239.084 C 224.593 236.313 224.5 234.557 225.609 233.818 C 226.347 233.818 227.642 234.464 229.489 235.758 C 231.337 237.051 233.37 238.991 235.587 241.579 C 239.283 237.513 242.055 233.448 243.902 229.383 C 237.25 217.188 231.429 204.438 226.44 191.133 C 221.451 177.829 216.739 164.155 212.304 150.111 C 208.608 138.285 204.728 126.829 200.663 115.742 C 196.598 104.655 190.869 92.644 183.478 79.709 C 183.108 78.969 182.647 78.323 182.092 77.769 C 181.538 77.215 181.445 76.752 181.815 76.383 C 182.554 75.643 183.848 75.829 185.696 76.938 C 193.457 80.264 200.386 86.453 206.484 95.508 C 212.582 104.562 218.032 114.448 222.837 125.166 C 227.642 135.883 231.799 146.508 235.31 157.041 C 238.82 167.573 241.685 175.98 243.902 182.264 L 255.543 212.753 C 276.239 182.448 296.104 152.883 315.136 124.057 C 334.168 95.231 348.49 66.959 358.098 39.242 C 358.837 37.393 359.207 36.47 359.207 36.47 C 359.945 35.73 360.408 36.193 360.592 37.856 C 360.777 39.519 360.87 40.535 360.87 40.905 C 359.022 61.97 353.479 82.665 344.239 102.992 C 335 123.317 324.005 143.551 311.255 163.693 C 298.505 183.834 284.74 204.068 269.957 224.394 C 255.174 244.719 241.5 265.23 228.935 285.927 C 220.804 299.231 213.229 313.274 206.207 328.057 C 199.184 342.839 193.179 357.715 188.19 372.682 C 183.201 387.649 179.598 402.247 177.38 416.476 C 175.163 430.703 174.793 443.73 176.272 455.557 Z M 286.033 310.318 C 280.489 319.188 274.576 328.334 268.293 337.758 C 262.011 347.182 255.636 356.329 249.168 365.198 C 242.701 374.068 236.511 382.568 230.598 390.698 C 224.684 398.828 219.326 406.22 214.522 412.872 C 212.674 415.458 211.011 417.399 209.533 418.693 C 208.054 419.986 207.131 420.448 206.761 420.079 C 206.022 420.079 206.022 418.97 206.761 416.753 C 207.5 414.535 208.24 412.502 208.978 410.655 C 220.804 380.35 235.68 351.154 253.603 323.068 C 271.527 294.981 289.913 266.709 308.761 238.253 C 320.218 220.514 331.859 202.682 343.685 184.758 C 355.51 166.833 365.859 146.231 374.728 122.948 C 375.467 121.1 375.744 119.991 375.56 119.622 C 375.375 119.252 375.653 119.068 376.391 119.068 C 377.13 119.437 377.5 120.177 377.5 121.285 C 377.5 122.394 377.5 123.503 377.5 124.611 C 377.5 132.741 375.837 141.981 372.511 152.329 C 369.185 162.676 364.75 173.671 359.207 185.313 C 353.663 196.954 347.565 208.78 340.913 220.791 C 334.261 232.801 327.516 244.351 320.679 255.438 C 313.843 266.524 307.375 276.78 301.277 286.204 C 295.179 295.628 290.097 303.666 286.033 310.318 Z M 338.696 177.829 C 325.761 197.785 311.533 218.481 296.011 239.916 C 280.489 261.35 265.152 281.122 250 299.231 C 249.261 299.97 247.598 301.726 245.011 304.497 C 242.424 307.269 240.576 308.285 239.467 307.546 C 238.729 306.806 239.006 304.866 240.299 301.726 C 241.592 298.584 242.609 296.459 243.348 295.351 C 245.935 290.176 249.076 284.171 252.772 277.334 C 256.468 270.496 260.348 263.567 264.413 256.546 C 268.478 249.524 272.635 242.688 276.886 236.035 C 281.136 229.383 284.924 223.654 288.25 218.851 C 289.729 216.633 292.685 211.921 297.12 204.715 C 301.554 197.508 306.543 189.007 312.087 179.215 C 317.63 169.421 323.544 158.795 329.826 147.34 C 336.108 135.883 341.837 124.703 347.011 113.802 C 352.184 102.899 356.619 92.736 360.315 83.313 C 364.011 73.889 366.043 66.405 366.413 60.861 C 367.152 57.165 367.706 55.318 368.076 55.318 C 368.815 55.318 369.369 56.149 369.739 57.813 C 370.109 59.476 370.478 60.676 370.848 61.416 C 372.326 69.177 372.326 78.231 370.848 88.579 C 369.369 98.926 367.06 109.551 363.918 120.454 C 360.777 131.355 356.896 141.888 352.277 152.052 C 347.658 162.214 343.13 170.807 338.696 177.829 Z M 192.902 114.633 C 196.967 128.306 200.94 142.812 204.821 158.149 C 208.701 173.486 211.934 188.361 214.522 202.774 C 214.892 203.513 214.983 204.715 214.799 206.378 C 214.615 208.041 214.152 209.241 213.413 209.981 C 212.674 210.35 211.566 209.795 210.087 208.318 C 208.608 206.839 207.685 205.731 207.315 204.992 C 205.468 202.405 203.435 199.078 201.217 195.014 C 199 190.948 196.967 186.698 195.12 182.264 C 193.272 177.829 191.516 173.394 189.853 168.959 C 188.19 164.524 186.804 160.644 185.696 157.318 C 184.587 153.622 182.277 147.247 178.766 138.193 C 175.256 129.138 171.19 119.622 166.571 109.644 C 161.951 99.666 157.147 90.242 152.158 81.372 C 147.168 72.503 142.641 66.405 138.576 63.079 C 136.359 60.861 135.62 59.753 136.359 59.753 C 136.729 59.383 137.467 59.383 138.576 59.753 C 139.685 60.121 140.609 60.491 141.348 60.861 C 147.261 62.709 153.082 65.665 158.81 69.731 C 164.538 73.796 169.712 78.415 174.332 83.59 C 178.951 88.763 182.831 94.03 185.973 99.389 C 189.115 104.746 191.424 109.828 192.902 114.633 Z M 196.228 426.731 C 194.75 433.752 193.734 439.943 193.179 445.302 C 192.625 450.66 192.348 455.371 192.348 459.438 C 192.348 460.176 192.348 461.101 192.348 462.209 C 192.348 463.318 191.793 463.872 190.685 463.872 C 189.946 463.872 189.115 463.41 188.19 462.486 C 187.266 461.562 186.62 460.546 186.25 459.438 C 185.511 457.589 184.771 455.741 184.033 453.894 C 183.294 452.045 182.74 449.921 182.37 447.519 C 182 445.116 182 441.976 182.37 438.095 C 182.74 434.215 183.478 429.317 184.587 423.405 C 185.696 418.6 187.359 412.687 189.576 405.666 C 191.793 398.644 194.195 391.899 196.783 385.432 C 199.37 378.964 201.865 373.698 204.266 369.633 C 206.668 365.567 208.608 363.904 210.087 364.644 C 210.457 365.013 210.549 366.307 210.364 368.524 C 210.18 370.742 209.717 373.236 208.978 376.008 C 208.24 378.78 207.5 381.459 206.761 384.046 C 206.022 386.632 205.468 388.481 205.098 389.59 C 203.25 395.872 201.679 402.063 200.386 408.16 C 199.093 414.258 197.707 420.448 196.228 426.731 Z" style="fill: rgb(51, 51, 51);" transform="matrix(1, 0, 0, 1, 0, 7.105427357601002e-15)"/>
</svg>